<svg xmlns="http://www.w3.org/2000/svg" viewBox="-0.0943804 -0.0616792 0.155159 0.120394" ><g stroke="#000" stroke-width="0"><g fill="#aaa"><polygon points="-0.0609024,0.0426785 -0.0603813,0.0400887 -0.0506872,-0.0123808 -0.056901,0.043237 -0.0312179,0.0497809 "/><polygon points="0.0573452,0.0211535 0.0036285,0.0534227 0.00137731,0.053149 0.0094076,0.0542141 0.0412588,0.00267606 0.0428791,0.00947532 "/><polygon points="0.025457,-0.00402514 0.0338645,-0.0176325 0.029665,-0.0212823 "/><polygon points="0.05844,0.0177796 0.0094076,0.0542141 0.0040479,0.0529368 0.00137731,0.053149 "/><polygon points="0.05844,0.0177796 0.0435148,-0.00264681 0.0414389,-0.0074587 0.0152357,-0.0244371 "/><polygon points="-0.0859114,0.00765824 "/><polygon points="-0.028596,0.0298882 -0.00121887,0.0538159 "/><polygon points="0.00239297,0.0119551 "/><polygon points="-0.0313588,0.0259711 -0.028596,0.0298882 "/><polygon points="-0.028596,0.0298882 -0.0693685,0.042129 -0.0722539,0.0516703 -0.0748982,0.0507765 -0.0765658,0.0514893 -0.0843354,0.0221805 -0.0809005,0.0521554 "/><polygon points="-0.0865619,0.00843268 -0.0859114,0.00765824 -0.0863675,0.0119806 -0.0679454,-0.00951073 -0.064959,-0.0125953 -0.0633084,-0.0138388 -0.0679454,-0.00951073 "/><polygon points="-0.0560108,0.0253693 "/><polygon points="-0.00179768,0.0163607 -0.0031074,0.00564285 -0.00304712,-0.0010688 "/><polygon points="-0.0865619,0.00843268 "/></g></g></svg>