<svg xmlns="http://www.w3.org/2000/svg" viewBox="-1.72792 -2.41319 4.39186 4.82637" ><g stroke="#000" stroke-width="0"><g fill="#aaa"><polygon points="1.06008,0.612098 0.865537,0.865606 0.612014,1.06013 0.316785,1.1824 "/><polygon points="-3.2e-05,1.2241 -0.316847,1.18239 -0.61207,1.06009 -1.06011,0.612042 "/><polygon points="9.7e-05,-1.2241 0.31691,-1.18237 0.612126,-1.06006 0.865629,-0.865515 "/><polygon points="0.31691,-1.18237 0.290548,-0.503163 0.410874,-0.41082 "/><polygon points="-0.48392,0 -0.438461,0.117483 -0.316722,-1.18242 "/><polygon points="-0.865583,0.86556 -1.10168,0.636042 -1.06011,0.612042 "/><polygon points="-1.08776,-0.628156 -1.10161,-0.636158 -0.89943,-0.899596 -0.865492,-0.865651 "/><polygon points="0.127956,-0.221591 0.103954,-0.180024 0.636129,-1.10163 0.180948,-0.180924 "/><polygon points="0.180037,-0.10393 1.18241,-0.316754 1.06014,-0.611986 0.152325,-0.087932 "/><polygon points="0.922104,0.922177 0.652012,1.12941 0.628013,1.08784 0.865537,0.865606 "/><polygon points="0.356745,-0.205938 0.397889,-0.10659 1.12943,-0.651982 0.922201,-0.922079 "/><polygon points="0.286765,1.07035 0.308504,1.15149 0.596015,1.03241 0.652012,1.12941 "/><polygon points="0.72695,0.727007 0.51402,0.890381 0.502021,0.869596 0.888164,0.888234 "/><polygon points="-0.325002,-1.21333 -0.308443,-1.15151 9.4e-05,-1.1921 9.9e-05,-1.2561 "/><polygon points="-0.888211,0.888187 -1.0324,0.596043 -1.08782,0.628042 "/><polygon points="0.969876,0.259928 1.15147,0.308595 1.03236,0.596097 1.08779,0.628099 "/><polygon points="-0.842866,-0.843022 -0.783475,-0.783619 -0.553967,-0.959694 -0.595961,-1.03244 "/><polygon points="0.969904,-0.259826 0.86961,-0.501998 1.03243,-0.595988 1.1515,-0.308473 "/><polygon points="0.890341,0.514091 0.72695,0.727007 0.783516,0.783578 0.959621,0.554094 "/><polygon points="-0.97759,-0.26205 -1.0121,0 -1.1081,0 -1.07032,-0.286906 "/><polygon points="0.278484,1.03944 0.266062,0.993079 -2.7e-05,1.0281 -2.9e-05,1.1081 "/><polygon points="8.1e-05,-1.0281 0.266167,-0.993051 0.286878,-1.07032 8.8e-05,-1.1081 "/><polygon points="-0.993044,-0.266193 -0.890314,-0.514137 -0.959592,-0.554144 "/><polygon points="-0.329271,1.22875 -0.652071,1.12937 -0.262521,0.454681 "/><polygon points="-1.03941,-0.278621 -0.931881,-0.538141 -0.959592,-0.554144 "/><polygon points="-0.710017,0.709999 -0.726988,0.726969 -0.514067,0.890354 -0.628071,1.08781 "/><polygon points="-0.952664,-0.550143 -0.876458,-0.506136 -0.715599,-0.715731 -0.709943,-0.710073 "/><polygon points="0.284807,-1.0626 0.259953,-0.969869 0.502112,-0.869543 "/><polygon points="-2.7e-05,1.0121 -0.261973,0.977611 -0.259902,0.969883 -2.6e-05,1.0041 "/><polygon points="0.284807,-1.0626 0.550118,-0.952679 0.502112,-0.869543 "/><polygon points="-0.777901,0.77788 -0.550068,0.952708 -0.502067,0.86957 -0.777901,0.77788 -0.715674,0.715655 -0.876511,0.506044 "/><polygon points="0.538117,-0.931895 0.76097,-0.76087 0.715712,-0.715618 "/><polygon points="0.952693,0.550093 0.77786,0.777921 0.76089,0.76095 0.931909,0.538092 "/><polygon points="0.2413,0.900656 0.284695,1.06263 -2.9e-05,1.1001 -2.8e-05,1.0761 "/><polygon points="0.659364,-0.659277 0.807528,-0.46616 0.952751,-0.549993 0.777942,-0.777839 "/><polygon points="-0.900624,-0.241419 -0.807454,-0.466288 -0.952664,-0.550143 -1.06259,-0.284835 "/><polygon points="0.466849,0.466886 0.282179,0.488787 0.77786,0.777921 "/><polygon points="0.545169,-0.146044 0.931966,-0.537994 1.03945,-0.278457 "/><polygon points="0.255697,-0.442809 0.466266,-0.807466 0.659364,-0.659277 0.76097,-0.76087 "/><polygon points="-0.39909,0.39908 -0.76093,0.76091 -0.931937,0.538043 "/><polygon points="-0.278539,1.03943 -0.466224,0.807491 -0.538068,0.931923 "/><polygon points="0.493917,-0.132314 0.900662,-0.241277 0.93242,4.9e-05 "/><polygon points="0.114309,0.42666 0.255651,0.442836 0.466182,0.807515 "/><polygon points="1.52428,0.030408 -0.173079,-0.299449 1.52399,-0.031438 "/><polygon points="-0.541773,0.753547 -0.571427,0.802365 -0.488927,0.847271 -0.477606,0.827661 -0.407493,0.926298 -0.307941,0.533769 -0.294698,0.51083 -0.411098,0.938962 -0.524893,0.909571 -0.488927,0.847271 -0.343174,0.409536 -0.590782,0.844572 -0.571427,0.802365 -0.31211,0.314802 -0.590782,0.844572 -0.561236,0.745466 -0.61252,0.834851 -0.609333,0.829968 -0.571427,0.802365 -0.265414,0.233882 -0.587888,0.789921 -0.60619,0.802999 -0.61252,0.834851 -0.599945,0.854028 -0.571427,0.802365 -0.412214,0.488167 -0.335124,0.580856 -0.571427,0.802365 -0.592112,0.778615 -0.541773,0.753547 -0.410062,0.463269 -0.592112,0.778615 -0.384261,0.437394 -0.61252,0.834851 -0.56663,0.734474 -0.581067,0.759482 -0.595512,0.803127 -0.590782,0.844572 -0.197958,-0.026072 -0.524893,0.909571 -0.393012,0.866391 -0.458508,0.794579 -0.587911,0.833382 -0.604608,0.862743 -0.477664,0.827762 -0.458508,0.794579 -0.387744,0.672002 -0.341133,0.776526 -0.391739,0.865022 -0.296311,0.739844 -0.300946,0.706915 -0.391739,0.865022 -0.381805,0.661715 -0.501569,0.683906 -0.514752,0.892004 -0.534931,0.741696 -0.501569,0.683906 -0.423758,0.734386 -0.381805,0.661715 -0.341133,0.776526 -0.374495,0.834316 -0.458508,0.794579 -0.311525,0.766199 -0.393012,0.866391 -0.530315,0.918963 -0.514752,0.892004 -0.51718,0.709613 "/><polygon points="0.843061,0.092448 0.917379,-0.000178 0.847876,-0.000178 "/><polygon points="-0.445574,-0.95701 -0.411406,-0.938784 -0.439571,-0.946612 -0.420377,-0.906947 -0.435965,-0.933949 -0.309638,-0.721259 -0.259978,-0.638278 -0.306059,-0.752488 -0.435965,-0.933949 -0.42771,-0.925866 -0.384839,-0.852358 -0.470734,-0.815044 -0.420377,-0.906947 -0.498818,-0.863693 -0.525201,-0.909393 -0.551621,-0.769893 -0.498818,-0.863693 -0.575502,-0.817393 -0.530623,-0.918785 -0.51506,-0.891826 -0.575502,-0.817393 -0.405936,-0.702802 -0.444787,-0.955008 -0.397708,-0.91732 -0.411406,-0.938784 -0.378181,-0.902118 -0.158091,-0.520881 -0.115885,-0.447772 -0.378181,-0.902118 -0.148045,-0.484291 -0.411406,-0.938784 -0.42771,-0.925866 -0.437105,-0.756794 -0.405936,-0.702802 -0.59109,-0.844394 -0.531203,-0.91979 -0.394726,-0.457117 -0.507739,-0.652924 -0.546223,-0.719585 -0.537264,-0.702732 -0.542081,-0.753369 -0.592421,-0.778437 -0.331628,-0.387623 -0.372833,-0.398069 -0.374076,-0.41952 -0.473747,-0.635001 -0.546223,-0.719585 -0.562532,-0.747835 -0.477973,-0.827584 -0.301254,-0.706737 -0.39332,-0.866213 -0.477942,-0.827531 -0.301254,-0.706737 -0.383901,-0.664634 -0.477973,-0.827584 -0.604916,-0.862565 -0.588219,-0.833204 -0.575502,-0.817393 -0.335433,-0.580678 -0.423046,-0.544138 -0.575502,-0.817393 -0.342496,-0.34552 -0.498818,-0.863693 -0.470734,-0.815044 -0.551621,-0.769893 -0.477914,-0.827483 -0.458816,-0.794401 -0.311833,-0.766021 -0.301254,-0.706737 -0.341441,-0.776348 -0.388052,-0.671824 -0.301254,-0.706737 -0.437105,-0.756794 -0.461677,-0.799357 -0.383901,-0.664634 -0.562532,-0.747835 -0.537264,-0.702732 -0.566938,-0.734296 -0.612828,-0.834673 -0.531203,-0.91979 -0.379358,-0.428306 -0.394726,-0.457117 -0.388052,-0.671824 -0.393471,-0.681211 -0.507739,-0.652924 -0.517817,-0.649208 -0.546223,-0.719585 -0.557864,-0.739749 -0.362534,-0.380229 -0.561544,-0.745288 -0.557864,-0.739749 -0.590487,-0.796172 -0.546223,-0.719585 -0.458816,-0.794401 -0.588219,-0.833204 -0.59109,-0.844394 -0.368061,-0.410975 -0.499874,-0.637965 -0.59109,-0.844394 -0.612828,-0.834673 -0.590487,-0.796172 -0.581375,-0.759304 -0.381025,-0.412258 -0.566938,-0.734296 -0.592421,-0.778437 -0.372833,-0.398069 -0.5381,-0.684342 -0.473747,-0.635001 -0.424066,-0.734208 -0.458816,-0.794401 -0.42771,-0.925866 -0.394507,-0.909312 -0.355613,-0.842691 -0.439571,-0.946612 -0.128256,-0.469202 "/><polygon points="-0.133428,0.478872 -0.129583,0.450192 -0.13275,0.414722 -0.321158,0.804056 "/><polygon points="-0.39332,-0.866213 -0.188807,-0.511957 -0.176548,-0.533553 -0.170152,-0.480843 -0.367135,-0.882986 -0.355613,-0.842691 -0.352698,-0.857978 -0.331929,-0.822001 -0.308579,-0.781555 -0.285703,-0.74193 -0.294095,-0.756465 -0.331929,-0.822001 -0.355897,-0.802723 -0.137534,-0.417007 -0.151721,-0.450075 -0.355897,-0.802723 -0.138366,-0.486714 -0.381645,-0.845989 -0.352698,-0.857978 -0.367135,-0.882986 -0.378181,-0.902118 -0.085887,-0.39581 -0.311833,-0.766021 -0.321466,-0.803878 -0.336617,-0.830122 -0.085887,-0.39581 -0.367135,-0.882986 -0.158593,-0.52175 -0.176548,-0.533553 -0.374803,-0.834138 -0.394507,-0.909312 -0.414041,-0.942711 "/><polygon points="0.827715,-0.018954 1.43236,-0.078157 0.836005,-0.050811 "/><polygon points="-0.634934,1.31298 -0.460214,0.761511 -0.373973,0.74942 -0.365224,0.771053 -0.373513,0.785412 -0.396621,0.788652 -0.817895,1.26254 -0.483658,0.738402 -0.396621,0.788652 -0.373973,0.74942 -0.397417,0.726313 -0.429282,0.707915 -0.461015,0.699167 -1.06368,1.74297 -1.11339,1.65684 -0.429282,0.707915 -0.167054,0.289726 -0.397417,0.726313 -0.64845,1.27956 "/><polygon points="-0.856606,-1.55677 -0.068414,-0.303413 -0.07303,-0.311409 -0.856606,-1.55677 -0.139581,-0.241425 -0.155093,-0.268294 -0.913586,-1.66449 "/><polygon points="0.306206,0.092448 0.278871,-0.000178 1.64904,0.031826 "/><polygon points="-0.405627,0.70298 -0.139273,0.241603 -0.233158,0.218966 -0.852034,1.41223 -0.139273,0.241603 -0.068106,0.303591 "/><polygon points="1.51515,0.027885 0.836002,0.049696 0.827713,0.017841 0.827715,-0.018954 0.836002,0.049696 0.850362,0.068087 1.45454,0.105519 "/><polygon points="-0.311525,0.766199 -0.33162,0.822179 -0.323551,0.808201 -0.313002,0.727799 -0.216377,0.601945 "/><polygon points="-0.110778,-0.418866 -0.099957,-0.400122 -0.330471,-0.819475 "/><polygon points="0.850362,0.068087 1.51618,-0.02896 0.889594,-0.018954 0.889594,0.017833 1.51618,-0.02896 0.881305,-0.050811 0.866942,0.068085 "/><polygon points="-0.402993,-0.450312 -0.609642,-0.82979 -0.606498,-0.802821 "/><polygon points="-0.48463,-0.737844 -0.461185,-0.76095 -0.635842,-1.31245 "/><polygon points="-0.473439,0.635179 -0.537791,0.68452 -0.307338,0.30539 "/><polygon points="-0.488927,0.847271 -0.397399,0.917498 -0.408784,0.896259 -0.488927,0.847271 -0.444478,0.955186 -0.439263,0.94679 -0.461369,0.799535 -0.436797,0.756972 -0.51718,0.709613 -0.499566,0.638143 -0.351657,0.382071 -0.352298,0.36321 -0.499566,0.638143 -0.299819,0.272307 -0.508026,0.632962 -0.499566,0.638143 -0.530315,0.918963 -0.524893,0.909571 -0.355589,0.802901 -0.411098,0.938962 -0.188445,0.574172 -0.413732,0.942889 -0.411098,0.938962 -0.393127,0.92872 -0.194125,0.58401 -0.411098,0.938962 -0.407493,0.926298 -0.408784,0.896259 -0.137044,0.423005 -0.258593,0.448289 -0.408784,0.896259 -0.171847,0.52425 -0.397399,0.917498 -0.427402,0.926044 -0.488927,0.847271 -0.335124,0.580856 -0.244273,0.608747 "/><polygon points="-0.143897,0.249613 -0.37448,-0.784849 -0.64865,-1.33463 -0.684352,-1.33964 -0.397591,-0.788089 -0.429326,-0.779343 "/><polygon points="-0.461015,0.699167 -0.732963,1.32755 -0.428355,0.779903 "/><polygon points="-0.537791,0.68452 -0.475286,0.57625 -0.35343,0.425428 "/><polygon points="-0.635842,-1.31245 -0.863123,-1.84834 -0.374937,-0.74886 "/><polygon points="0.387881,0.089381 0.930586,0.092866 0.955578,-0.000178 "/><polygon points="0.877842,0.123511 0.919384,0.123511 1.01872,0.113068 0.984745,0.112969 0.907602,0.113344 1.03958,0.09259 0.616228,-0.000178 0.575304,0.093566 1.03958,0.09259 1.01568,0.09249 0.984745,0.112969 0.919384,0.123511 0.87313,0.093115 0.856916,0.123511 "/><polygon points="-0.366189,-0.770491 -0.692005,-1.36661 -0.745605,-1.46719 "/><polygon points="-0.169844,0.481021 -0.191372,0.518984 -0.35239,0.858156 -0.36165,0.853025 -0.411098,0.938962 -0.116234,0.427883 -0.139741,0.489808 -0.411098,0.938962 -0.439263,0.94679 -0.36165,0.853025 -0.33162,0.822179 -0.35239,0.858156 -0.138058,0.486892 "/><polygon points="-0.587911,0.833382 -0.590179,0.79635 -0.551934,0.729354 "/><polygon points="0.35088,0.092448 0.980578,0.093722 1.05158,0.09259 1.06216,-0.000178 0.87313,0.093115 0.810786,0.093115 1.06216,-0.000178 1.02681,-0.089738 0.526252,-0.092804 0.517526,-0.000178 0.296974,0.092448 0.810786,0.093115 0.811612,-0.000178 0.873955,-0.000178 0.923102,-0.000178 0.923474,-0.092804 0.877212,-0.113949 0.873955,-0.000178 1.02926,-0.113424 0.802427,-0.113949 0.811612,-0.000178 1.02681,-0.089738 0.926206,-0.1137 1.06216,-0.000178 1.02857,-0.000178 0.978222,-0.000178 0.995631,-0.089738 0.942554,-0.092804 1.02857,-0.000178 0.541191,0.123511 1.05158,0.09259 0.804707,0.111161 0.980578,0.093722 0.606229,0.123511 0.970352,0.123511 0.501502,0.093048 0.94826,0.123511 0.923474,0.092448 1.02344,0.11275 1.05158,0.09259 1.01872,0.113068 0.475158,0.09344 0.980578,0.093722 0.457298,0.112926 "/><polygon points="-0.37448,-0.784849 -0.366189,-0.770491 -0.854835,-1.87925 -1.00066,-1.87928 "/><polygon points="1.04946,0.092271 1.02344,0.11275 0.970352,0.123511 0.94826,0.123511 0.396498,0.113482 0.80217,0.123511 0.418141,0.113482 0.396498,0.113482 0.38573,0.123511 0.94826,0.123511 1.02344,0.11275 1.01568,0.09249 "/><polygon points="-0.508026,0.632962 -0.54586,0.698497 -0.51718,0.709613 -0.288962,0.274672 -0.233158,0.218966 -0.51718,0.709613 -0.329817,0.324269 -0.56663,0.734474 -0.54586,0.698497 -0.522511,0.658051 "/><polygon points="-0.420377,-0.906947 -0.16863,-0.519949 -0.163613,-0.530446 "/><polygon points="1.75606,0.099644 1.7196,0.036466 0.889594,0.017833 "/><polygon points="1.71986,0.135843 1.67014,0.049711 0.889594,0.017833 "/><polygon points="-0.988977,-1.42319 -0.444787,-0.955008 -0.530623,-0.918785 "/><polygon points="-0.170086,0.521199 -0.153698,0.491846 -0.293787,0.756643 "/><polygon points="-0.269503,-0.240252 -0.606498,-0.802821 -0.300127,-0.272129 -0.265722,-0.233704 "/><polygon points="-0.130528,0.452677 -0.381337,0.846167 -0.090172,0.403945 "/><polygon points="0.978222,-0.000178 0.470473,-0.123867 0.493435,-0.114274 0.541191,-0.123867 "/><polygon points="-0.324727,-0.74873 -0.093365,-0.387591 -0.090481,-0.403767 "/><polygon points="-0.07303,-0.311409 -0.324727,-0.74873 -0.095365,-0.350098 "/><polygon points="-0.935916,1.62119 -0.737914,1.67423 -1.1409,-1.62119 -0.730931,1.62118 "/><polygon points="-1.13394,0.882246 -1.33194,0.935308 -1.14093,0.85618 -0.935945,0.829185 -0.73096,0.856165 -0.539941,0.935279 -0.375908,1.06114 -0.250038,1.22516 -0.375868,2.18119 -0.25001,2.01716 -0.196962,1.81916 -0.737889,2.36012 -0.539892,2.30706 -0.730904,2.38619 -0.935887,2.41319 -1.14087,2.38621 -1.33189,2.30709 -1.70093,1.62121 -1.49592,2.18123 -1.62179,2.01721 -1.70092,1.8262 -1.72792,1.62121 -1.70094,1.41623 -1.33194,0.935308 -1.49597,1.06118 "/><polygon points="-1.62182,-1.22521 -1.49596,-1.06118 -1.33194,-0.935307 -1.14093,-0.856179 -0.935943,-0.829185 -0.730957,-0.856165 -0.539939,-0.93528 -0.375906,-1.06114 -0.250037,-1.22516 -0.17091,-1.41618 -0.143916,-1.62116 -0.170896,-1.82614 -0.250011,-2.01716 -0.375868,-2.1812 -0.935889,-2.41319 -1.14087,-2.38621 -1.33189,-2.30709 -1.47684,-2.16215 -1.49592,-2.18123 -1.62179,-2.01721 -1.70092,-1.8262 -1.72792,-1.62121 "/><polygon points="2.07693,0.765013 1.87195,0.792 "/><polygon points="1.66696,-0.765013 1.87195,-0.792 2.07693,-0.765013 2.26795,-0.685892 2.43197,-0.560029 2.55784,-0.396001 1.133,0.198001 2.61089,-0.198001 2.21489,0.594 "/><polygon points="-0.170895,1.82614 -0.143917,1.62116 -0.17091,1.41617 -0.250038,1.22516 -0.394951,2.16211 -0.375868,2.18119 -0.341929,1.27822 -0.196962,1.81916 -0.539892,2.30706 -0.375868,2.18119 -1.13389,2.36014 -1.3184,2.28372 "/><polygon points="-0.375868,-2.1812 -0.539892,-2.30706 -0.737891,-2.36012 -0.730905,-2.38619 "/><polygon points="-1.62182,-1.22521 -1.70094,-1.41623 -1.72792,-1.62121 "/><polygon points="1.66696,-0.765013 1.47594,-0.685891 1.10693,0.204986 1.07995,1e-06 1.10693,-0.204983 1.18605,-0.395999 1.31192,-0.560028 1.47594,-0.685891 1.133,0.198001 1.10693,0.204986 1.18605,0.396001 1.31192,0.560029 1.47595,0.685893 2.07693,0.765013 2.26795,0.685892 2.63696,0.204984 2.66395,0 "/><polygon points="2.26795,0.685892 2.43197,0.560028 2.55784,0.395999 "/><polygon points="2.41289,0.540945 2.53447,0.382506 2.55784,0.395999 "/><polygon points="-1.13394,0.882246 -1.70094,1.41623 -1.62182,1.22521 -1.13394,0.882247 "/><polygon points="-0.935945,0.829185 -0.17091,1.41617 -0.737943,0.882232 "/><polygon points="-0.737943,0.882232 -0.553433,0.95865 -0.539941,0.935279 "/><polygon points="1.47595,0.685893 1.66696,0.765014 1.133,0.198001 "/><polygon points="2.07693,-0.765013 1.31192,-0.560028 1.20942,-0.382505 "/><polygon points="1.47595,0.685893 "/><polygon points="-0.75837,2.2837 -0.170895,1.82614 -0.553386,2.28369 "/><polygon points="-0.730957,-0.856165 -1.31844,-0.958677 "/><polygon points="-0.250037,-1.22516 -1.14093,-0.856179 -1.13394,-0.882246 "/><polygon points="2.26795,-0.685892 "/><polygon points="-0.394952,-2.16211 "/><polygon points="-1.67487,1.42321 -1.27888,1.0272 "/><polygon points="-1.33194,0.935308 -1.72792,1.62121 "/><polygon points="-1.13389,-2.36014 "/><polygon points="-1.13389,-2.36014 "/><polygon points="2.25445,0.66252 "/><polygon points="-0.935944,0.856172 -1.52993,1.27826 "/><polygon points="-1.67487,1.42321 "/><polygon points="-1.67487,1.42321 "/><polygon points="-0.273389,1.79868 -0.341929,1.27822 "/><polygon points="-1.08084,2.16214 "/><polygon points="2.25445,-0.662521 "/><polygon points="-1.42093,-1.1362 -1.70093,-1.62121 "/><polygon points="-0.450907,1.90118 -1.08084,2.16214 -0.4509,2.10617 -0.450928,1.34115 -0.273402,1.44364 "/><polygon points="2.26795,-0.396 1.87195,-0.396 1.69442,-0.102492 "/><polygon points="-0.730904,2.38619 -0.341904,1.96411 "/><polygon points="2.21489,-0.594 "/><polygon points="-0.935896,2.18121 -1.47686,1.76615 -0.935902,2.01718 -1.31842,1.72369 -1.13393,1.27825 "/><polygon points="-1.47686,1.76615 "/><polygon points="2.01689,-0.144946 0,0 -0.053054,-0.198 "/><polygon points="-1.4209,1.90122 "/><polygon points="2.43197,0 "/><polygon points="2.43197,0 "/><polygon points="-0.935897,-2.18121 "/><polygon points="-0.655892,1.90119 "/><polygon points="-0.935937,1.06116 "/><polygon points="2.01689,0.540946 "/><polygon points="1.47595,0 "/><polygon points="1.47595,0 1.76945,0.382507 2.04947,0.102492 1.81889,0.198 2.01689,0.144946 1.76945,0.177522 "/><polygon points="1.59193,0.484999 2.26795,0.395999 "/><polygon points="2.35694,-0.484999 "/><polygon points="1.87195,0 -0.144947,-0.144946 -0.177523,-0.102492 "/><polygon points="1.97444,0.382506 "/><polygon points="-0.93593,1.22519 "/><polygon points="-0.553406,1.72366 -0.655885,2.10617 "/><polygon points="2.15196,-0.484999 "/><polygon points="1.47595,0 "/><polygon points="1.47595,0 "/><polygon points="-1.42091,-1.90122 -0.833411,-2.00369 "/><polygon points="-0.790965,-1.76613 -1.13391,-1.67425 -0.730932,-1.62118 -0.833411,-2.00369 "/><polygon points="-1.03839,2.0037 -1.33192,1.6212 "/><polygon points="-0.935902,-2.01718 "/><polygon points="-0.790975,-1.47623 -1.03841,-1.44367 "/><polygon points="-1.27887,1.4232 -0.988977,1.42319 "/><polygon points="-0.93593,1.22519 -0.790975,1.47623 "/><polygon points="-1.31843,1.51871 -1.08086,1.76614 "/><polygon points="-1.31843,1.51871 -1.1409,1.62119 "/><polygon points="-0.592977,-1.42317 -0.988977,-1.42319 "/><polygon points="-1.21594,-1.34118 -0.935923,-1.4162 "/><polygon points="1.76945,-0.177522 "/><polygon points="1.76945,-0.177522 "/><polygon points="-1.31842,-1.72369 "/><polygon points="-1.31842,-1.72369 "/><polygon points="-1.13391,-1.67425 "/><polygon points="-0.204986,-0.765013 -0.396001,-0.685891 -0.56003,-0.560028 -0.685893,-0.395999 -0.765014,-0.204983 -0.792,1e-06 -0.197999,0.738946 -0.765013,1e-06 -0.484998,0.485 "/><polygon points="-0.204986,-0.765013 0,-0.792 0.204984,-0.765013 -0.485,-0.484998 0.395999,-0.685892 0.560028,-0.560029 0.792,0 0.765013,0.204984 0.396001,0.685892 0.204986,0.765013 1e-06,0.792 -0.540945,0.540947 "/><polygon points="-0.792,1e-06 -0.765013,0.204986 -0.685892,0.396001 -0.560028,0.560029 "/><polygon points="-0.382506,0.662521 0.540947,0.540945 -0.204984,0.765014 0.662521,0.382506 "/><polygon points="-0.738946,-0.197999 "/><polygon points="-0.738946,-0.197999 "/><polygon points="0.792,0 0.765013,-0.204985 0.685892,-0.396001 "/><polygon points="0.792,0 0.540946,-0.540946 0,-0.685892 0.662521,-0.177523 "/><polygon points="0.396001,0.685892 0.540947,0.540945 "/><polygon points="0.396001,0.685892 0.738946,0.197999 "/><polygon points="0.765013,0.204984 0.685893,0.395999 0.198001,0.738946 0.594,0.342945 -0.144945,0.540946 "/><polygon points="-0.765013,1e-06 -0.177521,0.662521 -0.738946,0.198001 -0.485,-0.484998 -0.593999,0.342947 "/><polygon points="0.540947,0.540945 0.662521,-0.382507 "/><polygon points="-0.198001,-0.738946 "/><polygon points="0.685892,0 0.177521,-0.662521 "/><polygon points="-0.662521,0.177523 "/><polygon points="0.382507,0.66252 0.662521,0.177521 "/><polygon points="0.395999,-0.685892 "/><polygon points="0.395999,-0.685892 -0.198001,-0.738946 "/><polygon points="0.594,-0.342947 "/><polygon points="0.685892,0 0.484999,-0.484999 0.560028,0 "/><polygon points="0.540946,-0.540946 0,-0.560028 "/><polygon points="-0.540946,0.144947 0,0.396 -0.484998,0.280015 -0.662521,0.177523 "/><polygon points="0.396,0 "/><polygon points="-0.484998,0.485 -0.560028,0 "/><polygon points="0.540946,0.144945 0.396,0 "/><polygon points="0.144947,0.540946 0.382507,0.102492 "/><polygon points="0.198,-0.342946 "/><polygon points="0.198,-0.342946 "/><polygon points="-0.280014,0.484999 0.102493,0.382506 "/><polygon points="0.280014,-0.280014 "/><polygon points="0.280014,-0.280014 "/><polygon points="-0.053054,0.198 0.177522,0.102492 "/><polygon points="0.102493,0.177522 "/><polygon points="-0.198,-0.053054 "/><polygon points="-0.102493,-0.177522 -0.204985,0 "/></g></g></svg>